<svg xmlns="http://www.w3.org/2000/svg" xmlns:svg="http://www.w3.org/2000/svg" id="Layer_1" width="32" height="20" x="0" y="0" enable-background="new 0 0 512 512" version="1.1" viewBox="0 0 32 20" xml:space="preserve"><metadata id="metadata3776"/><g id="g3754" transform="matrix(0.04324609,0,0,0.04111507,12.942501,-0.5123079)" style="fill:#085095;fill-opacity:1;stroke:#fff;stroke-width:25;stroke-linecap:round;stroke-linejoin:round;stroke-miterlimit:4;stroke-dasharray:none;stroke-opacity:1"><path style="fill:#085095;fill-opacity:1;stroke:#fff;stroke-width:25;stroke-linecap:round;stroke-linejoin:round;stroke-miterlimit:4;stroke-dasharray:none;stroke-opacity:1" id="path3770" d="m 256,25.6 c -95.4279,0 -172.8,77.3721 -172.8,172.8 0,95.4279 144,288 172.8,288 28.8,0 172.8,-192.5721 172.8,-288 C 428.8,102.9721 351.4279,25.6 256,25.6 Z m 0,288 c -63.5346,0 -115.2,-51.6942 -115.2,-115.2 0,-63.5058 51.6654,-115.2 115.2,-115.2 63.5346,0 115.2,51.6942 115.2,115.2 0,63.5058 -51.6654,115.2 -115.2,115.2 z"/><polygon style="fill:#085095;fill-opacity:1;stroke:#fff;stroke-width:69.44444275;stroke-linecap:round;stroke-linejoin:round;stroke-miterlimit:4;stroke-dasharray:none;stroke-opacity:1" id="polygon3" stroke-miterlimit="10" points="330.27 173.919 489.16 197.007 374.185 309.08 401.33 467.31 259.216 392.612 117.104 467.31 144.25 309.08 29.274 197.007 188.165 173.919 259.216 29.942" transform="matrix(0.36,0,0,0.36,160.72934,103.79972)"/></g></svg>